<?xml version="1.0"?>
<svg xmlns="http://www.w3.org/2000/svg" height="512px" viewBox="-77 0 512 512" width="512px" class=""><g><path d="m357.980469 108.84375c-.089844-.5-.226563-.992188-.40625-1.46875-.230469-.410156-.496094-.800781-.785157-1.167969-.335937-.550781-.734374-1.054687-1.1875-1.511719-.078124-.066406-.101562-.171874-.1875-.238281l-22.613281-19.386719v-76.535156c0-.148437-.078125-.257812-.085937-.402344-.039063-.839843-.203125-1.667968-.496094-2.457031-.078125-.246093-.167969-.488281-.273438-.726562-.066406-.144531-.082031-.296875-.160156-.445313-.386718-.710937-.871094-1.363281-1.433594-1.945312-.113281-.082032-.207031-.144532-.300781-.230469-.628906-.574219-1.339843-1.054687-2.105469-1.421875-.265624-.113281-.480468-.214844-.734374-.308594-.9375-.375-1.933594-.5781248-2.945313-.597656h-290.132813c-1.007812.0195312-2.007812.222656-2.945312.597656-.253906.09375-.484375.195313-.730469.308594-.769531.367188-1.480469.84375-2.109375 1.421875-.09375.085937-.203125.148437-.296875.242187-.570312.574219-1.054687 1.226563-1.445312 1.933594-.074219.148438-.09375.300782-.160157.445313-.101562.238281-.191406.480469-.265624.726562-.289063.789063-.457032 1.617188-.496094 2.457031 0 .144532-.082032.253907-.082032.402344v76.535156l-22.613281 19.386719c-.085937.066407-.113281.171875-.1875.238281-.453125.457032-.847656.960938-1.179687 1.511719-.300782.367188-.566406.761719-.792969 1.175781-.179687.46875-.3125.957032-.402344 1.453126-.183593.578124-.308593 1.175781-.3671872 1.78125 0 .113281-.0585938.207031-.0585938.316406v375.464844c0 14.140624 11.460938 25.601562 25.601562 25.601562h307.199219c14.136719 0 25.597657-11.460938 25.597657-25.601562v-375.464844c0-.109375-.058594-.203125-.058594-.316406-.054688-.601563-.175782-1.199219-.359375-1.773438zm-59.3125-30.566406 28.160156 24.121094h-28.160156zm2.753906-20.105469 14.3125-21.480469v33.75zm-122.222656-41.105469h129.128906l-25.292969 37.929688c-.125.246094-.234375.5-.324218.761718-.238282.433594-.429688.886719-.582032 1.355469-.1875.589844-.3125 1.199219-.367187 1.816407 0 .28125-.160157.523437-.160157.804687v42.664063h-204.800781v-42.664063c0-.28125-.136719-.523437-.164062-.804687-.054688-.617188-.175781-1.226563-.367188-1.816407-.148437-.46875-.34375-.921875-.578125-1.355469-.09375-.261718-.199218-.515624-.324218-.761718l-25.292969-37.929688zm-147.625 85.332032 28.160156-24.121094v24.121094zm11.09375-65.707032 14.308593 21.464844-14.308593 12.285156zm298.664062 449.707032c0 4.714843-3.820312 8.535156-8.53125 8.535156h-307.199219c-4.714843 0-8.535156-3.820313-8.535156-8.535156v-366.933594h324.265625zm0 0" data-original="#000000" class="active-path" data-old_color="#eac6b9" fill="#eac6b9"/><path d="m256 187.734375c-17.167969-.023437-31.667969 12.734375-33.835938 29.761719-2.167968 17.03125 8.675782 33.011718 25.300782 37.292968v52.410157c0 37.703125-30.5625 68.265625-68.265625 68.265625s-68.265625-30.5625-68.265625-68.265625v-52.410157c16.640625-4.296874 27.492187-20.300781 25.328125-37.351562-2.167969-17.050781-16.671875-29.832031-33.863281-29.832031-17.1875 0-31.695313 12.78125-33.859376 29.832031-2.167968 17.050781 8.683594 33.054688 25.328126 37.351562v52.410157c0 47.128906 38.203124 85.335937 85.332031 85.335937 47.128906 0 85.335937-38.207031 85.335937-85.335937v-52.410157c16.625-4.28125 27.46875-20.261718 25.300782-37.292968-2.167969-17.027344-16.667969-29.785156-33.835938-29.761719zm-170.667969 34.132813c-.039062-8.292969 5.886719-15.417969 14.046875-16.882813 8.164063-1.46875 16.199219 3.144531 19.046875 10.933594 2.851563 7.789062-.308593 16.496093-7.492187 20.644531v-6.164062c0-4.710938-3.820313-8.53125-8.535156-8.53125-4.710938 0-8.53125 3.820312-8.53125 8.53125v6.164062c-5.261719-3.027344-8.515626-8.625-8.535157-14.695312zm179.203125 14.695312v-6.164062c0-4.710938-3.824218-8.53125-8.535156-8.53125s-8.535156 3.820312-8.535156 8.53125v6.164062c-6.6875-3.863281-9.949219-11.738281-7.949219-19.199219 2-7.460937 8.761719-12.648437 16.484375-12.648437s14.484375 5.1875 16.484375 12.648437c2 7.460938-1.261719 15.335938-7.949219 19.199219zm0 0" data-original="#000000" class="active-path" data-old_color="#eac6b9" fill="#eac6b9"/><path d="m256 145.066406c0 4.714844 3.820312 8.535156 8.535156 8.535156h51.199219c4.710937 0 8.53125-3.820312 8.53125-8.535156 0-4.710937-3.820313-8.53125-8.53125-8.53125h-51.199219c-4.714844 0-8.535156 3.820313-8.535156 8.53125zm0 0" data-original="#000000" class="active-path" data-old_color="#eac6b9" fill="#eac6b9"/><path d="m221.867188 153.601562h8.53125c4.714843 0 8.535156-3.820312 8.535156-8.535156 0-4.710937-3.820313-8.53125-8.535156-8.53125h-8.53125c-4.714844 0-8.535157 3.820313-8.535157 8.53125 0 4.714844 3.820313 8.535156 8.535157 8.535156zm0 0" data-original="#000000" class="active-path" data-old_color="#eac6b9" fill="#eac6b9"/><path d="m102.398438 460.800781h-59.730469c-4.714844 0-8.535157 3.820313-8.535157 8.53125 0 4.714844 3.820313 8.535157 8.535157 8.535157h59.730469c4.714843 0 8.535156-3.820313 8.535156-8.535157 0-4.710937-3.820313-8.53125-8.535156-8.53125zm0 0" data-original="#000000" class="active-path" data-old_color="#eac6b9" fill="#eac6b9"/><path d="m145.066406 460.800781h-8.53125c-4.714844 0-8.535156 3.820313-8.535156 8.53125 0 4.714844 3.820312 8.535157 8.535156 8.535157h8.53125c4.714844 0 8.535156-3.820313 8.535156-8.535157 0-4.710937-3.820312-8.53125-8.535156-8.53125zm0 0" data-original="#000000" class="active-path" data-old_color="#eac6b9" fill="#eac6b9"/></g> </svg>
