<svg height="512pt" viewBox="0 0 512 512.00016" width="512pt" xmlns="http://www.w3.org/2000/svg"><path d="m256 0c-138.777344 0-256 106.414062-256 241 0 72.125 34.800781 138.085938 91 183v73c0 5.226562 2.71875 10.074219 7.179688 12.800781 4.410156 2.691407 9.960937 2.957031 14.664062.546875l74.453125-38.160156c22.273437 5.847656 45.355469 8.8125 68.703125 8.8125 141.160156 0 256-107.664062 256-240 0-134.652344-117.296875-241-256-241zm0 451c-22.574219 0-44.855469-3.109375-66.21875-9.238281-3.664062-1.054688-7.589844-.671875-10.976562 1.066406l-57.804688 29.628906v-55.804687c0-4.71875-2.21875-9.160156-5.988281-11.992188-54.027344-40.601562-85.011719-100.253906-85.011719-163.660156 0-116.347656 101.382812-211 226-211s226 94.652344 226 211c0 115.792969-101.382812 210-226 210zm0 0"/><path d="m399.292969 152.585938-110.332031 55.164062-52.355469-52.355469c-3.015625-3.015625-7.171875-4.609375-11.433594-4.371093-4.261719.238281-8.21875 2.277343-10.882813 5.609374l-120 150c-4.402343 5.5-4.382812 13.320313.046876 18.800782 4.429687 5.476562 12.074218 7.132812 18.375 3.984375l110.328124-55.164063 52.355469 52.355469c3.015625 3.015625 7.167969 4.605469 11.4375 4.367187 4.257813-.234374 8.214844-2.273437 10.882813-5.605468l120-150c4.398437-5.5 4.378906-13.324219-.050782-18.800782-4.425781-5.476562-12.070312-7.136718-18.371093-3.984374zm-114.535157 140.957031-48.152343-48.148438c-4.566407-4.566406-11.539063-5.699219-17.3125-2.8125l-58.917969 29.457031 66.867188-83.582031 48.152343 48.148438c4.5625 4.566406 11.539063 5.699219 17.3125 2.8125l58.917969-29.457031zm0 0"/></svg>